<?xml version="1.0" encoding="UTF-8" standalone="no"?><svg xmlns="http://www.w3.org/2000/svg" xmlns:xlink="http://www.w3.org/1999/xlink" contentScriptType="application/ecmascript" contentStyleType="text/css" height="202.2px" preserveAspectRatio="none" style="width:246px;height:202px;" version="1.1" viewBox="0 0 246 202" width="246.6px" zoomAndPan="magnify"><defs><filter height="300%" id="fp4t5yqqqzfs3" width="300%" x="-1" y="-1"><feGaussianBlur result="blurOut" stdDeviation="1.2"/><feColorMatrix in="blurOut" result="blurOut2" type="matrix" values="0 0 0 0 0 0 0 0 0 0 0 0 0 0 0 0 0 0 .4 0"/><feOffset dx="2.4" dy="2.4" in="blurOut2" result="blurOut3"/><feBlend in="SourceGraphic" in2="blurOut3" mode="normal"/></filter></defs><g><rect fill="#DDDDDD" height="195.1547" style="stroke:#A80036;stroke-width:0.6;" width="242.7" x="0.6" y="3.6"/><text fill="#000000" font-family="sans-serif" font-size="7.8" font-weight="bold" lengthAdjust="spacing" textLength="61.8" x="91.05" y="10.8401">Client Domain</text><line style="stroke:#A80036;stroke-width:0.6;stroke-dasharray:5.0,5.0;" x1="16.8" x2="16.8" y1="65.0578" y2="146.9766"/><line style="stroke:#A80036;stroke-width:0.6;stroke-dasharray:5.0,5.0;" x1="209.1" x2="209.1" y1="65.0578" y2="146.9766"/><text fill="#000000" font-family="sans-serif" font-size="8.4" lengthAdjust="spacing" textLength="24.6" x="3" y="63.0768">Client</text><ellipse cx="17.1" cy="21.0797" fill="#FEFECE" filter="url(#fp4t5yqqqzfs3)" rx="4.8" ry="4.8" style="stroke:#A80036;stroke-width:1.2;"/><path d="M17.1,25.8797 L17.1,42.0797 M9.3,30.6797 L24.9,30.6797 M17.1,42.0797 L9.3,51.0797 M17.1,42.0797 L24.9,51.0797 " fill="none" filter="url(#fp4t5yqqqzfs3)" style="stroke:#A80036;stroke-width:1.2;"/><text fill="#000000" font-family="sans-serif" font-size="8.4" lengthAdjust="spacing" textLength="24.6" x="3" y="154.1736">Client</text><ellipse cx="17.1" cy="162.1547" fill="#FEFECE" filter="url(#fp4t5yqqqzfs3)" rx="4.8" ry="4.8" style="stroke:#A80036;stroke-width:1.2;"/><path d="M17.1,166.9547 L17.1,183.1547 M9.3,171.7547 L24.9,171.7547 M17.1,183.1547 L9.3,192.1547 M17.1,183.1547 L24.9,192.1547 " fill="none" filter="url(#fp4t5yqqqzfs3)" style="stroke:#A80036;stroke-width:1.2;"/><rect fill="#FEFECE" filter="url(#fp4t5yqqqzfs3)" height="18.1781" style="stroke:#A80036;stroke-width:0.8999999999999999;" width="61.2" x="177.3" y="43.8797"/><text fill="#000000" font-family="sans-serif" font-size="8.4" lengthAdjust="spacing" textLength="52.8" x="181.5" y="55.8768">Vault Server</text><rect fill="#FEFECE" filter="url(#fp4t5yqqqzfs3)" height="18.1781" style="stroke:#A80036;stroke-width:0.8999999999999999;" width="61.2" x="177.3" y="146.3766"/><text fill="#000000" font-family="sans-serif" font-size="8.4" lengthAdjust="spacing" textLength="52.8" x="181.5" y="158.3736">Vault Server</text><polygon fill="#A80036" points="201.9,81.3375,207.9,83.7375,201.9,86.1375,204.3,83.7375" style="stroke:#A80036;stroke-width:0.6;"/><line style="stroke:#A80036;stroke-width:0.6;" x1="17.1" x2="205.5" y1="83.7375" y2="83.7375"/><text fill="#000000" font-family="sans-serif" font-size="7.8" lengthAdjust="spacing" textLength="49.2" x="21.3" y="80.6979">POST /vaults</text><polygon fill="#A80036" points="23.7,98.8172,17.7,101.2172,23.7,103.6172,21.3,101.2172" style="stroke:#A80036;stroke-width:0.6;"/><line style="stroke:#A80036;stroke-width:0.6;" x1="20.1" x2="208.5" y1="101.2172" y2="101.2172"/><text fill="#000000" font-family="sans-serif" font-size="7.8" lengthAdjust="spacing" textLength="28.2" x="27.3" y="98.1776">vaultID</text><polygon fill="#A80036" points="201.9,116.2969,207.9,118.6969,201.9,121.0969,204.3,118.6969" style="stroke:#A80036;stroke-width:0.6;"/><line style="stroke:#A80036;stroke-width:0.6;" x1="17.1" x2="205.5" y1="118.6969" y2="118.6969"/><text fill="#000000" font-family="sans-serif" font-size="7.8" lengthAdjust="spacing" textLength="177.6" x="21.3" y="115.6573">POST /vaults/{vaultID}/docs {my_document}</text><polygon fill="#A80036" points="23.7,133.7766,17.7,136.1766,23.7,138.5766,21.3,136.1766" style="stroke:#A80036;stroke-width:0.6;"/><line style="stroke:#A80036;stroke-width:0.6;" x1="20.1" x2="208.5" y1="136.1766" y2="136.1766"/><text fill="#000000" font-family="sans-serif" font-size="7.8" lengthAdjust="spacing" textLength="22.2" x="27.3" y="133.137">docID</text><!--MD5=[2a6411e3cffae6debf82f9e942e5005f]
@startuml

box "Client Domain"
  actor Client as client
  participant "Vault Server" as vaults
end box

client -> vaults : POST /vaults
vaults -> client : vaultID
client -> vaults : POST /vaults/{vaultID}/docs {my_document}
vaults -> client : docID

@enduml

PlantUML version 1.2021.00(Sun Jan 10 05:25:05 EST 2021)
(GPL source distribution)
Java Runtime: OpenJDK Runtime Environment
JVM: OpenJDK 64-Bit Server VM
Default Encoding: UTF-8
Language: en
Country: CA
--></g></svg>